# xmcd
# 
# Track frame offsets:
#     151
#     15580
#     35832
#     55131
#     78067
#     95666
#     120123
#     143707
#     165472
#     178798
#     200423
#     222036
#     243668
#     266525
# 
# Disc length: 3840
# 
# Revision: 0
# Processed by: cddbd v1.5.2PL0 Copyright (c) Steve Scherf et al.
# Submitted via: BonkEnc v1.0.8
# 
DISCID=b60efe0e
DTITLE=Eric Clapton - Reptile
DYEAR=2001
DGENRE=Blues
TTITLE0=Reptile
TTITLE1=Got You On My Mind
TTITLE2=Travelin' Light
TTITLE3=Believe In Life
TTITLE4=Come Back Baby
TTITLE5=Broken Down
TTITLE6=Find Myself
TTITLE7=I Ain't Gonna Stand For It
TTITLE8=I Want A Little Girl
TTITLE9=Second Nature
TTITLE10=Don't Let Me Be Lonely Tonight
TTITLE11=Modern Girl
TTITLE12=Superman Inside
TTITLE13=Son and Sylvia
EXTD=
EXTT0=
EXTT1=
EXTT2=
EXTT3=
EXTT4=
EXTT5=
EXTT6=
EXTT7=
EXTT8=
EXTT9=
EXTT10=
EXTT11=
EXTT12=
EXTT13=
PLAYORDER=
